<mxfile host="app.diagrams.net" modified="2023-10-08T01:37:55.484Z" agent="Mozilla/5.0 (Windows NT 10.0; Win64; x64) AppleWebKit/537.36 (KHTML, like Gecko) Chrome/117.0.0.0 Safari/537.36" etag="GMBXoihQ2CXEOrdZS6Lw" version="22.0.4" type="device">
  <diagram name="Page-1" id="EUY-lggJAvRB08sBd_qi">
    <mxGraphModel dx="1054" dy="574" grid="1" gridSize="10" guides="1" tooltips="1" connect="1" arrows="1" fold="1" page="1" pageScale="1" pageWidth="850" pageHeight="1100" math="0" shadow="0">
      <root>
        <mxCell id="0" />
        <mxCell id="1" parent="0" />
        <mxCell id="CiyafRM-gf9ek4KLn9La-1" value="" style="endArrow=none;html=1;rounded=0;" parent="1" edge="1">
          <mxGeometry width="50" height="50" relative="1" as="geometry">
            <mxPoint x="160" y="80" as="sourcePoint" />
            <mxPoint x="1040" y="80" as="targetPoint" />
          </mxGeometry>
        </mxCell>
        <mxCell id="CiyafRM-gf9ek4KLn9La-2" value="" style="endArrow=none;html=1;rounded=0;" parent="1" edge="1">
          <mxGeometry width="50" height="50" relative="1" as="geometry">
            <mxPoint x="240" y="520" as="sourcePoint" />
            <mxPoint x="240" y="80" as="targetPoint" />
          </mxGeometry>
        </mxCell>
        <mxCell id="CiyafRM-gf9ek4KLn9La-3" value="" style="endArrow=none;dashed=1;html=1;rounded=0;" parent="1" edge="1">
          <mxGeometry width="50" height="50" relative="1" as="geometry">
            <mxPoint x="250" y="518" as="sourcePoint" />
            <mxPoint x="250" y="118" as="targetPoint" />
          </mxGeometry>
        </mxCell>
        <mxCell id="CiyafRM-gf9ek4KLn9La-78" value="M" style="edgeLabel;html=1;align=center;verticalAlign=middle;resizable=0;points=[];" parent="CiyafRM-gf9ek4KLn9La-3" vertex="1" connectable="0">
          <mxGeometry x="0.9244" y="6" relative="1" as="geometry">
            <mxPoint y="-4" as="offset" />
          </mxGeometry>
        </mxCell>
        <mxCell id="CiyafRM-gf9ek4KLn9La-10" value="" style="endArrow=none;dashed=1;html=1;rounded=0;" parent="1" edge="1">
          <mxGeometry width="50" height="50" relative="1" as="geometry">
            <mxPoint x="280" y="520" as="sourcePoint" />
            <mxPoint x="280" y="120" as="targetPoint" />
          </mxGeometry>
        </mxCell>
        <mxCell id="CiyafRM-gf9ek4KLn9La-82" value="T" style="edgeLabel;html=1;align=center;verticalAlign=middle;resizable=0;points=[];" parent="CiyafRM-gf9ek4KLn9La-10" vertex="1" connectable="0">
          <mxGeometry x="0.9289" y="-10" relative="1" as="geometry">
            <mxPoint y="-6" as="offset" />
          </mxGeometry>
        </mxCell>
        <mxCell id="CiyafRM-gf9ek4KLn9La-14" value="" style="endArrow=none;dashed=1;html=1;rounded=0;" parent="1" edge="1">
          <mxGeometry width="50" height="50" relative="1" as="geometry">
            <mxPoint x="300" y="518" as="sourcePoint" />
            <mxPoint x="300" y="118" as="targetPoint" />
          </mxGeometry>
        </mxCell>
        <mxCell id="CiyafRM-gf9ek4KLn9La-15" value="" style="endArrow=none;html=1;rounded=0;" parent="1" edge="1">
          <mxGeometry width="50" height="50" relative="1" as="geometry">
            <mxPoint x="320" y="520" as="sourcePoint" />
            <mxPoint x="320" y="80" as="targetPoint" />
          </mxGeometry>
        </mxCell>
        <mxCell id="CiyafRM-gf9ek4KLn9La-87" value="M" style="edgeLabel;html=1;align=center;verticalAlign=middle;resizable=0;points=[];" parent="CiyafRM-gf9ek4KLn9La-15" vertex="1" connectable="0">
          <mxGeometry x="0.7755" y="-6" relative="1" as="geometry">
            <mxPoint x="2" y="-1" as="offset" />
          </mxGeometry>
        </mxCell>
        <mxCell id="CiyafRM-gf9ek4KLn9La-17" value="" style="endArrow=none;html=1;rounded=0;" parent="1" edge="1">
          <mxGeometry width="50" height="50" relative="1" as="geometry">
            <mxPoint x="160" y="120" as="sourcePoint" />
            <mxPoint x="1040" y="120" as="targetPoint" />
          </mxGeometry>
        </mxCell>
        <mxCell id="CiyafRM-gf9ek4KLn9La-83" value="F" style="edgeLabel;html=1;align=center;verticalAlign=middle;resizable=0;points=[];" parent="CiyafRM-gf9ek4KLn9La-17" vertex="1" connectable="0">
          <mxGeometry x="-0.741" y="-10" relative="1" as="geometry">
            <mxPoint y="-1" as="offset" />
          </mxGeometry>
        </mxCell>
        <mxCell id="CiyafRM-gf9ek4KLn9La-18" value="" style="endArrow=none;html=1;rounded=0;" parent="1" edge="1">
          <mxGeometry width="50" height="50" relative="1" as="geometry">
            <mxPoint x="400" y="518" as="sourcePoint" />
            <mxPoint x="400" y="78" as="targetPoint" />
          </mxGeometry>
        </mxCell>
        <mxCell id="CiyafRM-gf9ek4KLn9La-19" value="" style="endArrow=none;html=1;rounded=0;" parent="1" edge="1">
          <mxGeometry width="50" height="50" relative="1" as="geometry">
            <mxPoint x="480" y="520" as="sourcePoint" />
            <mxPoint x="480" y="80" as="targetPoint" />
          </mxGeometry>
        </mxCell>
        <mxCell id="CiyafRM-gf9ek4KLn9La-20" value="" style="endArrow=none;html=1;rounded=0;" parent="1" edge="1">
          <mxGeometry width="50" height="50" relative="1" as="geometry">
            <mxPoint x="560" y="520" as="sourcePoint" />
            <mxPoint x="560" y="80" as="targetPoint" />
          </mxGeometry>
        </mxCell>
        <mxCell id="CiyafRM-gf9ek4KLn9La-21" value="" style="endArrow=none;html=1;rounded=0;" parent="1" edge="1">
          <mxGeometry width="50" height="50" relative="1" as="geometry">
            <mxPoint x="640" y="520" as="sourcePoint" />
            <mxPoint x="640" y="80" as="targetPoint" />
          </mxGeometry>
        </mxCell>
        <mxCell id="CiyafRM-gf9ek4KLn9La-22" value="" style="endArrow=none;html=1;rounded=0;" parent="1" edge="1">
          <mxGeometry width="50" height="50" relative="1" as="geometry">
            <mxPoint x="720" y="520" as="sourcePoint" />
            <mxPoint x="720" y="80" as="targetPoint" />
          </mxGeometry>
        </mxCell>
        <mxCell id="CiyafRM-gf9ek4KLn9La-23" value="" style="endArrow=none;html=1;rounded=0;" parent="1" edge="1">
          <mxGeometry width="50" height="50" relative="1" as="geometry">
            <mxPoint x="800" y="520" as="sourcePoint" />
            <mxPoint x="800" y="80" as="targetPoint" />
          </mxGeometry>
        </mxCell>
        <mxCell id="CiyafRM-gf9ek4KLn9La-24" value="" style="endArrow=none;html=1;rounded=0;" parent="1" edge="1">
          <mxGeometry width="50" height="50" relative="1" as="geometry">
            <mxPoint x="880" y="520.7272616299716" as="sourcePoint" />
            <mxPoint x="880" y="80" as="targetPoint" />
          </mxGeometry>
        </mxCell>
        <mxCell id="CiyafRM-gf9ek4KLn9La-25" value="&lt;font style=&quot;font-size: 20px;&quot;&gt;1&lt;/font&gt;" style="text;html=1;align=center;verticalAlign=middle;resizable=0;points=[];autosize=1;strokeColor=none;fillColor=none;" parent="1" vertex="1">
          <mxGeometry x="260" y="80" width="30" height="40" as="geometry" />
        </mxCell>
        <mxCell id="CiyafRM-gf9ek4KLn9La-26" value="&lt;font style=&quot;font-size: 20px;&quot;&gt;2&lt;/font&gt;" style="text;html=1;align=center;verticalAlign=middle;resizable=0;points=[];autosize=1;strokeColor=none;fillColor=none;" parent="1" vertex="1">
          <mxGeometry x="340" y="83" width="30" height="40" as="geometry" />
        </mxCell>
        <mxCell id="CiyafRM-gf9ek4KLn9La-27" value="&lt;font style=&quot;font-size: 20px;&quot;&gt;3&lt;/font&gt;" style="text;html=1;align=center;verticalAlign=middle;resizable=0;points=[];autosize=1;strokeColor=none;fillColor=none;" parent="1" vertex="1">
          <mxGeometry x="425" y="83" width="30" height="40" as="geometry" />
        </mxCell>
        <mxCell id="CiyafRM-gf9ek4KLn9La-28" value="&lt;font style=&quot;font-size: 20px;&quot;&gt;4&lt;/font&gt;" style="text;html=1;align=center;verticalAlign=middle;resizable=0;points=[];autosize=1;strokeColor=none;fillColor=none;" parent="1" vertex="1">
          <mxGeometry x="505" y="83" width="30" height="40" as="geometry" />
        </mxCell>
        <mxCell id="CiyafRM-gf9ek4KLn9La-31" value="&lt;font style=&quot;font-size: 20px;&quot;&gt;5&lt;/font&gt;" style="text;html=1;align=center;verticalAlign=middle;resizable=0;points=[];autosize=1;strokeColor=none;fillColor=none;" parent="1" vertex="1">
          <mxGeometry x="585" y="83" width="30" height="40" as="geometry" />
        </mxCell>
        <mxCell id="CiyafRM-gf9ek4KLn9La-32" value="&lt;font style=&quot;font-size: 20px;&quot;&gt;6&lt;/font&gt;" style="text;html=1;align=center;verticalAlign=middle;resizable=0;points=[];autosize=1;strokeColor=none;fillColor=none;" parent="1" vertex="1">
          <mxGeometry x="665" y="78" width="30" height="40" as="geometry" />
        </mxCell>
        <mxCell id="CiyafRM-gf9ek4KLn9La-34" value="&lt;font style=&quot;font-size: 20px;&quot;&gt;7&lt;/font&gt;" style="text;html=1;align=center;verticalAlign=middle;resizable=0;points=[];autosize=1;strokeColor=none;fillColor=none;" parent="1" vertex="1">
          <mxGeometry x="750" y="83" width="30" height="40" as="geometry" />
        </mxCell>
        <mxCell id="CiyafRM-gf9ek4KLn9La-35" value="&lt;font style=&quot;font-size: 20px;&quot;&gt;8&lt;/font&gt;" style="text;html=1;align=center;verticalAlign=middle;resizable=0;points=[];autosize=1;strokeColor=none;fillColor=none;" parent="1" vertex="1">
          <mxGeometry x="830" y="78" width="30" height="40" as="geometry" />
        </mxCell>
        <mxCell id="CiyafRM-gf9ek4KLn9La-36" value="" style="endArrow=none;html=1;rounded=0;" parent="1" edge="1">
          <mxGeometry width="50" height="50" relative="1" as="geometry">
            <mxPoint x="960" y="520" as="sourcePoint" />
            <mxPoint x="960" y="80" as="targetPoint" />
          </mxGeometry>
        </mxCell>
        <mxCell id="CiyafRM-gf9ek4KLn9La-37" value="" style="endArrow=none;html=1;rounded=0;" parent="1" edge="1">
          <mxGeometry width="50" height="50" relative="1" as="geometry">
            <mxPoint x="1040" y="520" as="sourcePoint" />
            <mxPoint x="1040" y="80" as="targetPoint" />
          </mxGeometry>
        </mxCell>
        <mxCell id="CiyafRM-gf9ek4KLn9La-38" value="&lt;font style=&quot;font-size: 20px;&quot;&gt;9&lt;/font&gt;" style="text;html=1;align=center;verticalAlign=middle;resizable=0;points=[];autosize=1;strokeColor=none;fillColor=none;" parent="1" vertex="1">
          <mxGeometry x="905" y="78" width="30" height="40" as="geometry" />
        </mxCell>
        <mxCell id="CiyafRM-gf9ek4KLn9La-39" value="&lt;font style=&quot;font-size: 20px;&quot;&gt;10&lt;/font&gt;" style="text;html=1;align=center;verticalAlign=middle;resizable=0;points=[];autosize=1;strokeColor=none;fillColor=none;" parent="1" vertex="1">
          <mxGeometry x="970" y="83" width="50" height="40" as="geometry" />
        </mxCell>
        <mxCell id="CiyafRM-gf9ek4KLn9La-41" value="" style="endArrow=none;dashed=1;html=1;rounded=0;entryX=-0.07;entryY=0.953;entryDx=0;entryDy=0;entryPerimeter=0;" parent="1" target="CiyafRM-gf9ek4KLn9La-26" edge="1">
          <mxGeometry width="50" height="50" relative="1" as="geometry">
            <mxPoint x="340" y="520" as="sourcePoint" />
            <mxPoint x="580" y="210" as="targetPoint" />
            <Array as="points">
              <mxPoint x="338" y="240" />
            </Array>
          </mxGeometry>
        </mxCell>
        <mxCell id="CiyafRM-gf9ek4KLn9La-42" value="" style="endArrow=none;dashed=1;html=1;rounded=0;" parent="1" edge="1">
          <mxGeometry width="50" height="50" relative="1" as="geometry">
            <mxPoint x="354.44" y="518" as="sourcePoint" />
            <mxPoint x="354.44" y="118" as="targetPoint" />
          </mxGeometry>
        </mxCell>
        <mxCell id="CiyafRM-gf9ek4KLn9La-43" value="" style="endArrow=none;dashed=1;html=1;rounded=0;entryX=1.233;entryY=0.975;entryDx=0;entryDy=0;entryPerimeter=0;" parent="1" edge="1">
          <mxGeometry width="50" height="50" relative="1" as="geometry">
            <mxPoint x="387.01" y="516" as="sourcePoint" />
            <mxPoint x="383.9999999999998" y="118" as="targetPoint" />
          </mxGeometry>
        </mxCell>
        <mxCell id="CiyafRM-gf9ek4KLn9La-44" value="" style="endArrow=none;dashed=1;html=1;rounded=0;" parent="1" edge="1">
          <mxGeometry width="50" height="50" relative="1" as="geometry">
            <mxPoint x="410" y="520" as="sourcePoint" />
            <mxPoint x="413" y="118" as="targetPoint" />
            <Array as="points" />
          </mxGeometry>
        </mxCell>
        <mxCell id="CiyafRM-gf9ek4KLn9La-45" value="" style="endArrow=none;dashed=1;html=1;rounded=0;exitX=0.5;exitY=0;exitDx=0;exitDy=0;" parent="1" source="CiyafRM-gf9ek4KLn9La-154" edge="1">
          <mxGeometry width="50" height="50" relative="1" as="geometry">
            <mxPoint x="440" y="520" as="sourcePoint" />
            <mxPoint x="440" y="120" as="targetPoint" />
          </mxGeometry>
        </mxCell>
        <mxCell id="CiyafRM-gf9ek4KLn9La-46" value="" style="endArrow=none;dashed=1;html=1;rounded=0;" parent="1" edge="1">
          <mxGeometry width="50" height="50" relative="1" as="geometry">
            <mxPoint x="460" y="521" as="sourcePoint" />
            <mxPoint x="460" y="120" as="targetPoint" />
          </mxGeometry>
        </mxCell>
        <mxCell id="CiyafRM-gf9ek4KLn9La-47" value="" style="endArrow=none;dashed=1;html=1;rounded=0;entryX=-0.326;entryY=0.931;entryDx=0;entryDy=0;entryPerimeter=0;exitX=0.448;exitY=0;exitDx=0;exitDy=0;exitPerimeter=0;" parent="1" source="CiyafRM-gf9ek4KLn9La-154" edge="1">
          <mxGeometry width="50" height="50" relative="1" as="geometry">
            <mxPoint x="424" y="522.76" as="sourcePoint" />
            <mxPoint x="424.22" y="122.9999999999999" as="targetPoint" />
          </mxGeometry>
        </mxCell>
        <mxCell id="CiyafRM-gf9ek4KLn9La-48" value="" style="endArrow=none;dashed=1;html=1;rounded=0;entryX=0.137;entryY=0.997;entryDx=0;entryDy=0;entryPerimeter=0;" parent="1" target="CiyafRM-gf9ek4KLn9La-25" edge="1">
          <mxGeometry width="50" height="50" relative="1" as="geometry">
            <mxPoint x="264" y="520.8888753255209" as="sourcePoint" />
            <mxPoint x="580" y="220" as="targetPoint" />
          </mxGeometry>
        </mxCell>
        <mxCell id="CiyafRM-gf9ek4KLn9La-79" value="T" style="edgeLabel;html=1;align=center;verticalAlign=middle;resizable=0;points=[];" parent="CiyafRM-gf9ek4KLn9La-48" vertex="1" connectable="0">
          <mxGeometry x="0.9318" y="8" relative="1" as="geometry">
            <mxPoint y="-5" as="offset" />
          </mxGeometry>
        </mxCell>
        <mxCell id="CiyafRM-gf9ek4KLn9La-81" value="W" style="edgeLabel;html=1;align=center;verticalAlign=middle;resizable=0;points=[];" parent="CiyafRM-gf9ek4KLn9La-48" vertex="1" connectable="0">
          <mxGeometry x="0.9318" y="-8" relative="1" as="geometry">
            <mxPoint y="-6" as="offset" />
          </mxGeometry>
        </mxCell>
        <mxCell id="CiyafRM-gf9ek4KLn9La-49" value="" style="endArrow=none;dashed=1;html=1;rounded=0;entryX=1.204;entryY=0.931;entryDx=0;entryDy=0;entryPerimeter=0;" parent="1" edge="1">
          <mxGeometry width="50" height="50" relative="1" as="geometry">
            <mxPoint x="370" y="520" as="sourcePoint" />
            <mxPoint x="370.1199999999999" y="120.2399999999999" as="targetPoint" />
          </mxGeometry>
        </mxCell>
        <mxCell id="CiyafRM-gf9ek4KLn9La-50" value="" style="endArrow=none;dashed=1;html=1;rounded=0;" parent="1" edge="1">
          <mxGeometry width="50" height="50" relative="1" as="geometry">
            <mxPoint x="490" y="520" as="sourcePoint" />
            <mxPoint x="490" y="118" as="targetPoint" />
          </mxGeometry>
        </mxCell>
        <mxCell id="CiyafRM-gf9ek4KLn9La-51" value="" style="endArrow=none;dashed=1;html=1;rounded=0;entryX=0.178;entryY=0.908;entryDx=0;entryDy=0;entryPerimeter=0;" parent="1" target="CiyafRM-gf9ek4KLn9La-28" edge="1">
          <mxGeometry width="50" height="50" relative="1" as="geometry">
            <mxPoint x="510" y="520" as="sourcePoint" />
            <mxPoint x="580" y="270" as="targetPoint" />
          </mxGeometry>
        </mxCell>
        <mxCell id="CiyafRM-gf9ek4KLn9La-52" value="" style="endArrow=none;dashed=1;html=1;rounded=0;" parent="1" edge="1">
          <mxGeometry width="50" height="50" relative="1" as="geometry">
            <mxPoint x="510" y="520" as="sourcePoint" />
            <mxPoint x="510" y="420" as="targetPoint" />
          </mxGeometry>
        </mxCell>
        <mxCell id="CiyafRM-gf9ek4KLn9La-53" value="" style="endArrow=none;dashed=1;html=1;rounded=0;entryX=0.919;entryY=0.908;entryDx=0;entryDy=0;entryPerimeter=0;" parent="1" target="CiyafRM-gf9ek4KLn9La-28" edge="1">
          <mxGeometry width="50" height="50" relative="1" as="geometry">
            <mxPoint x="533" y="520" as="sourcePoint" />
            <mxPoint x="580" y="270" as="targetPoint" />
          </mxGeometry>
        </mxCell>
        <mxCell id="CiyafRM-gf9ek4KLn9La-54" value="" style="endArrow=none;dashed=1;html=1;rounded=0;entryX=-0.296;entryY=0.931;entryDx=0;entryDy=0;entryPerimeter=0;" parent="1" edge="1">
          <mxGeometry width="50" height="50" relative="1" as="geometry">
            <mxPoint x="580" y="519.76" as="sourcePoint" />
            <mxPoint x="580.1199999999999" y="120" as="targetPoint" />
          </mxGeometry>
        </mxCell>
        <mxCell id="CiyafRM-gf9ek4KLn9La-55" value="" style="endArrow=none;dashed=1;html=1;rounded=0;entryX=0.296;entryY=0.864;entryDx=0;entryDy=0;entryPerimeter=0;" parent="1" target="CiyafRM-gf9ek4KLn9La-31" edge="1">
          <mxGeometry width="50" height="50" relative="1" as="geometry">
            <mxPoint x="594" y="520" as="sourcePoint" />
            <mxPoint x="580" y="270" as="targetPoint" />
          </mxGeometry>
        </mxCell>
        <mxCell id="CiyafRM-gf9ek4KLn9La-56" value="" style="endArrow=none;dashed=1;html=1;rounded=0;entryX=1.096;entryY=0.886;entryDx=0;entryDy=0;entryPerimeter=0;" parent="1" edge="1">
          <mxGeometry width="50" height="50" relative="1" as="geometry">
            <mxPoint x="612.12" y="519.56" as="sourcePoint" />
            <mxPoint x="610.0000000000001" y="117.99999999999994" as="targetPoint" />
          </mxGeometry>
        </mxCell>
        <mxCell id="CiyafRM-gf9ek4KLn9La-57" value="" style="endArrow=none;dashed=1;html=1;rounded=0;" parent="1" edge="1">
          <mxGeometry width="50" height="50" relative="1" as="geometry">
            <mxPoint x="630" y="520" as="sourcePoint" />
            <mxPoint x="630" y="120" as="targetPoint" />
          </mxGeometry>
        </mxCell>
        <mxCell id="CiyafRM-gf9ek4KLn9La-58" value="" style="endArrow=none;dashed=1;html=1;rounded=0;entryX=-0.296;entryY=1.033;entryDx=0;entryDy=0;entryPerimeter=0;exitX=0.924;exitY=-0.1;exitDx=0;exitDy=0;exitPerimeter=0;" parent="1" source="CiyafRM-gf9ek4KLn9La-160" target="CiyafRM-gf9ek4KLn9La-32" edge="1">
          <mxGeometry width="50" height="50" relative="1" as="geometry">
            <mxPoint x="656" y="520" as="sourcePoint" />
            <mxPoint x="580" y="270" as="targetPoint" />
          </mxGeometry>
        </mxCell>
        <mxCell id="CiyafRM-gf9ek4KLn9La-59" value="" style="endArrow=none;dashed=1;html=1;rounded=0;entryX=0.237;entryY=1.122;entryDx=0;entryDy=0;entryPerimeter=0;exitX=1;exitY=0.5;exitDx=0;exitDy=0;" parent="1" source="CiyafRM-gf9ek4KLn9La-160" target="CiyafRM-gf9ek4KLn9La-32" edge="1">
          <mxGeometry width="50" height="50" relative="1" as="geometry">
            <mxPoint x="672" y="520" as="sourcePoint" />
            <mxPoint x="580" y="270" as="targetPoint" />
          </mxGeometry>
        </mxCell>
        <mxCell id="CiyafRM-gf9ek4KLn9La-60" value="" style="endArrow=none;dashed=1;html=1;rounded=0;entryX=0.83;entryY=1.189;entryDx=0;entryDy=0;entryPerimeter=0;" parent="1" edge="1">
          <mxGeometry width="50" height="50" relative="1" as="geometry">
            <mxPoint x="690" y="520" as="sourcePoint" />
            <mxPoint x="689.9000000000001" y="117.99999999999994" as="targetPoint" />
          </mxGeometry>
        </mxCell>
        <mxCell id="CiyafRM-gf9ek4KLn9La-61" value="" style="endArrow=none;dashed=1;html=1;rounded=0;" parent="1" edge="1">
          <mxGeometry width="50" height="50" relative="1" as="geometry">
            <mxPoint x="710" y="520" as="sourcePoint" />
            <mxPoint x="710" y="120" as="targetPoint" />
          </mxGeometry>
        </mxCell>
        <mxCell id="CiyafRM-gf9ek4KLn9La-62" value="" style="endArrow=none;dashed=1;html=1;rounded=0;" parent="1" edge="1">
          <mxGeometry width="50" height="50" relative="1" as="geometry">
            <mxPoint x="730" y="390" as="sourcePoint" />
            <mxPoint x="730" y="118" as="targetPoint" />
          </mxGeometry>
        </mxCell>
        <mxCell id="CiyafRM-gf9ek4KLn9La-63" value="" style="endArrow=none;dashed=1;html=1;rounded=0;entryX=-0.048;entryY=0.975;entryDx=0;entryDy=0;entryPerimeter=0;" parent="1" target="CiyafRM-gf9ek4KLn9La-34" edge="1">
          <mxGeometry width="50" height="50" relative="1" as="geometry">
            <mxPoint x="749" y="340" as="sourcePoint" />
            <mxPoint x="580" y="270" as="targetPoint" />
          </mxGeometry>
        </mxCell>
        <mxCell id="CiyafRM-gf9ek4KLn9La-64" value="" style="endArrow=none;dashed=1;html=1;rounded=0;entryX=0.781;entryY=0.975;entryDx=0;entryDy=0;entryPerimeter=0;" parent="1" edge="1">
          <mxGeometry width="50" height="50" relative="1" as="geometry">
            <mxPoint x="770" y="516" as="sourcePoint" />
            <mxPoint x="770.4299999999998" y="118" as="targetPoint" />
            <Array as="points">
              <mxPoint x="770" y="330" />
            </Array>
          </mxGeometry>
        </mxCell>
        <mxCell id="CiyafRM-gf9ek4KLn9La-65" value="" style="endArrow=none;dashed=1;html=1;rounded=0;entryX=1.344;entryY=1.019;entryDx=0;entryDy=0;entryPerimeter=0;" parent="1" edge="1">
          <mxGeometry width="50" height="50" relative="1" as="geometry">
            <mxPoint x="790" y="520" as="sourcePoint" />
            <mxPoint x="790.3199999999999" y="118.75999999999988" as="targetPoint" />
          </mxGeometry>
        </mxCell>
        <mxCell id="CiyafRM-gf9ek4KLn9La-66" value="" style="endArrow=none;dashed=1;html=1;rounded=0;" parent="1" edge="1">
          <mxGeometry width="50" height="50" relative="1" as="geometry">
            <mxPoint x="820" y="520" as="sourcePoint" />
            <mxPoint x="820" y="120" as="targetPoint" />
          </mxGeometry>
        </mxCell>
        <mxCell id="CiyafRM-gf9ek4KLn9La-67" value="" style="endArrow=none;dashed=1;html=1;rounded=0;targetPerimeterSpacing=0;endSize=6;exitX=0.817;exitY=0.16;exitDx=0;exitDy=0;exitPerimeter=0;" parent="1" source="CiyafRM-gf9ek4KLn9La-164" edge="1">
          <mxGeometry width="50" height="50" relative="1" as="geometry">
            <mxPoint x="840" y="515.12" as="sourcePoint" />
            <mxPoint x="837" y="120" as="targetPoint" />
          </mxGeometry>
        </mxCell>
        <mxCell id="CiyafRM-gf9ek4KLn9La-68" value="" style="endArrow=none;dashed=1;html=1;rounded=0;entryX=0.693;entryY=1.122;entryDx=0;entryDy=0;entryPerimeter=0;" parent="1" target="CiyafRM-gf9ek4KLn9La-35" edge="1">
          <mxGeometry width="50" height="50" relative="1" as="geometry">
            <mxPoint x="851" y="520" as="sourcePoint" />
            <mxPoint x="580" y="270" as="targetPoint" />
          </mxGeometry>
        </mxCell>
        <mxCell id="CiyafRM-gf9ek4KLn9La-69" value="" style="endArrow=none;dashed=1;html=1;rounded=0;entryX=1.256;entryY=1.1;entryDx=0;entryDy=0;entryPerimeter=0;" parent="1" target="CiyafRM-gf9ek4KLn9La-35" edge="1">
          <mxGeometry width="50" height="50" relative="1" as="geometry">
            <mxPoint x="868" y="520" as="sourcePoint" />
            <mxPoint x="580" y="270" as="targetPoint" />
          </mxGeometry>
        </mxCell>
        <mxCell id="CiyafRM-gf9ek4KLn9La-70" value="" style="endArrow=none;dashed=1;html=1;rounded=0;entryX=-0.267;entryY=1.056;entryDx=0;entryDy=0;entryPerimeter=0;" parent="1" target="CiyafRM-gf9ek4KLn9La-38" edge="1">
          <mxGeometry width="50" height="50" relative="1" as="geometry">
            <mxPoint x="897" y="520" as="sourcePoint" />
            <mxPoint x="580" y="270" as="targetPoint" />
          </mxGeometry>
        </mxCell>
        <mxCell id="CiyafRM-gf9ek4KLn9La-71" value="" style="endArrow=none;dashed=1;html=1;rounded=0;entryX=0.385;entryY=1.122;entryDx=0;entryDy=0;entryPerimeter=0;" parent="1" edge="1">
          <mxGeometry width="50" height="50" relative="1" as="geometry">
            <mxPoint x="912" y="521" as="sourcePoint" />
            <mxPoint x="911.5499999999997" y="123.88" as="targetPoint" />
          </mxGeometry>
        </mxCell>
        <mxCell id="CiyafRM-gf9ek4KLn9La-72" value="" style="endArrow=none;dashed=1;html=1;rounded=0;entryX=1.067;entryY=1.1;entryDx=0;entryDy=0;entryPerimeter=0;" parent="1" edge="1">
          <mxGeometry width="50" height="50" relative="1" as="geometry">
            <mxPoint x="935" y="521" as="sourcePoint" />
            <mxPoint x="932.0099999999998" y="123" as="targetPoint" />
          </mxGeometry>
        </mxCell>
        <mxCell id="CiyafRM-gf9ek4KLn9La-73" value="" style="endArrow=none;dashed=1;html=1;rounded=0;" parent="1" edge="1">
          <mxGeometry width="50" height="50" relative="1" as="geometry">
            <mxPoint x="950" y="520" as="sourcePoint" />
            <mxPoint x="950" y="120" as="targetPoint" />
          </mxGeometry>
        </mxCell>
        <mxCell id="CiyafRM-gf9ek4KLn9La-74" value="" style="endArrow=none;dashed=1;html=1;rounded=0;entryX=0.033;entryY=0.997;entryDx=0;entryDy=0;entryPerimeter=0;" parent="1" target="CiyafRM-gf9ek4KLn9La-39" edge="1">
          <mxGeometry width="50" height="50" relative="1" as="geometry">
            <mxPoint x="972" y="520" as="sourcePoint" />
            <mxPoint x="580" y="270" as="targetPoint" />
          </mxGeometry>
        </mxCell>
        <mxCell id="CiyafRM-gf9ek4KLn9La-75" value="" style="endArrow=none;dashed=1;html=1;rounded=0;entryX=0.407;entryY=0.975;entryDx=0;entryDy=0;entryPerimeter=0;exitX=0.833;exitY=0.06;exitDx=0;exitDy=0;exitPerimeter=0;" parent="1" source="CiyafRM-gf9ek4KLn9La-166" target="CiyafRM-gf9ek4KLn9La-39" edge="1">
          <mxGeometry width="50" height="50" relative="1" as="geometry">
            <mxPoint x="990" y="520" as="sourcePoint" />
            <mxPoint x="580" y="270" as="targetPoint" />
          </mxGeometry>
        </mxCell>
        <mxCell id="CiyafRM-gf9ek4KLn9La-76" value="" style="endArrow=none;dashed=1;html=1;rounded=0;entryX=0.816;entryY=0.953;entryDx=0;entryDy=0;entryPerimeter=0;" parent="1" target="CiyafRM-gf9ek4KLn9La-39" edge="1">
          <mxGeometry width="50" height="50" relative="1" as="geometry">
            <mxPoint x="1011" y="520" as="sourcePoint" />
            <mxPoint x="580" y="270" as="targetPoint" />
          </mxGeometry>
        </mxCell>
        <mxCell id="CiyafRM-gf9ek4KLn9La-77" value="" style="endArrow=none;dashed=1;html=1;rounded=0;entryX=1.1;entryY=0.908;entryDx=0;entryDy=0;entryPerimeter=0;" parent="1" target="CiyafRM-gf9ek4KLn9La-39" edge="1">
          <mxGeometry width="50" height="50" relative="1" as="geometry">
            <mxPoint x="1025" y="520" as="sourcePoint" />
            <mxPoint x="580" y="270" as="targetPoint" />
          </mxGeometry>
        </mxCell>
        <mxCell id="CiyafRM-gf9ek4KLn9La-89" value="T" style="edgeLabel;html=1;align=center;verticalAlign=middle;resizable=0;points=[];" parent="1" vertex="1" connectable="0">
          <mxGeometry x="264" y="139" as="geometry">
            <mxPoint x="82" y="-10" as="offset" />
          </mxGeometry>
        </mxCell>
        <mxCell id="CiyafRM-gf9ek4KLn9La-91" value="W" style="edgeLabel;html=1;align=center;verticalAlign=middle;resizable=0;points=[];" parent="1" vertex="1" connectable="0">
          <mxGeometry x="274" y="125" as="geometry">
            <mxPoint x="88" y="4" as="offset" />
          </mxGeometry>
        </mxCell>
        <mxCell id="CiyafRM-gf9ek4KLn9La-92" value="T" style="edgeLabel;html=1;align=center;verticalAlign=middle;resizable=0;points=[];" parent="1" vertex="1" connectable="0">
          <mxGeometry x="300" y="135" as="geometry">
            <mxPoint x="77" y="-7" as="offset" />
          </mxGeometry>
        </mxCell>
        <mxCell id="CiyafRM-gf9ek4KLn9La-93" value="F" style="edgeLabel;html=1;align=center;verticalAlign=middle;resizable=0;points=[];" parent="1" vertex="1" connectable="0">
          <mxGeometry x="321" y="140" as="geometry">
            <mxPoint x="71" y="-12" as="offset" />
          </mxGeometry>
        </mxCell>
        <mxCell id="CiyafRM-gf9ek4KLn9La-94" value="M" style="edgeLabel;html=1;align=center;verticalAlign=middle;resizable=0;points=[];" parent="1" vertex="1" connectable="0">
          <mxGeometry x="325" y="126" as="geometry">
            <mxPoint x="81" y="1" as="offset" />
          </mxGeometry>
        </mxCell>
        <mxCell id="CiyafRM-gf9ek4KLn9La-95" value="T" style="edgeLabel;html=1;align=center;verticalAlign=middle;resizable=0;points=[];" parent="1" vertex="1" connectable="0">
          <mxGeometry x="336" y="139" as="geometry">
            <mxPoint x="82" y="-10" as="offset" />
          </mxGeometry>
        </mxCell>
        <mxCell id="CiyafRM-gf9ek4KLn9La-99" value="W" style="edgeLabel;html=1;align=center;verticalAlign=middle;resizable=0;points=[];" parent="1" vertex="1" connectable="0">
          <mxGeometry x="274" y="125" as="geometry">
            <mxPoint x="158" y="4" as="offset" />
          </mxGeometry>
        </mxCell>
        <mxCell id="CiyafRM-gf9ek4KLn9La-100" value="T" style="edgeLabel;html=1;align=center;verticalAlign=middle;resizable=0;points=[];" parent="1" vertex="1" connectable="0">
          <mxGeometry x="303" y="137" as="geometry">
            <mxPoint x="147" y="-9" as="offset" />
          </mxGeometry>
        </mxCell>
        <mxCell id="CiyafRM-gf9ek4KLn9La-101" value="F" style="edgeLabel;html=1;align=center;verticalAlign=middle;resizable=0;points=[];" parent="1" vertex="1" connectable="0">
          <mxGeometry x="469.9988888888889" y="128.44000000000005" as="geometry" />
        </mxCell>
        <mxCell id="CiyafRM-gf9ek4KLn9La-102" value="M" style="edgeLabel;html=1;align=center;verticalAlign=middle;resizable=0;points=[];" parent="1" vertex="1" connectable="0">
          <mxGeometry x="238" y="127" as="geometry">
            <mxPoint x="247" as="offset" />
          </mxGeometry>
        </mxCell>
        <mxCell id="CiyafRM-gf9ek4KLn9La-103" value="T" style="edgeLabel;html=1;align=center;verticalAlign=middle;resizable=0;points=[];" parent="1" vertex="1" connectable="0">
          <mxGeometry x="268" y="126.00447320649451" as="geometry">
            <mxPoint x="232" y="1" as="offset" />
          </mxGeometry>
        </mxCell>
        <mxCell id="CiyafRM-gf9ek4KLn9La-104" value="W" style="edgeLabel;html=1;align=center;verticalAlign=middle;resizable=0;points=[];" parent="1" vertex="1" connectable="0">
          <mxGeometry x="284" y="136" as="geometry">
            <mxPoint x="237" y="-8" as="offset" />
          </mxGeometry>
        </mxCell>
        <mxCell id="CiyafRM-gf9ek4KLn9La-105" value="T" style="edgeLabel;html=1;align=center;verticalAlign=middle;resizable=0;points=[];" parent="1" vertex="1" connectable="0">
          <mxGeometry x="310" y="133" as="geometry">
            <mxPoint x="231" y="-4" as="offset" />
          </mxGeometry>
        </mxCell>
        <mxCell id="CiyafRM-gf9ek4KLn9La-107" value="F" style="edgeLabel;html=1;align=center;verticalAlign=middle;resizable=0;points=[];" parent="1" vertex="1" connectable="0">
          <mxGeometry x="325" y="136" as="geometry">
            <mxPoint x="230" y="-8" as="offset" />
          </mxGeometry>
        </mxCell>
        <mxCell id="CiyafRM-gf9ek4KLn9La-108" value="M" style="edgeLabel;html=1;align=center;verticalAlign=middle;resizable=0;points=[];" parent="1" vertex="1" connectable="0">
          <mxGeometry x="252" y="137" as="geometry">
            <mxPoint x="316" y="-9" as="offset" />
          </mxGeometry>
        </mxCell>
        <mxCell id="CiyafRM-gf9ek4KLn9La-109" value="T" style="edgeLabel;html=1;align=center;verticalAlign=middle;resizable=0;points=[];" parent="1" vertex="1" connectable="0">
          <mxGeometry x="260" y="137" as="geometry">
            <mxPoint x="325" y="-9" as="offset" />
          </mxGeometry>
        </mxCell>
        <mxCell id="CiyafRM-gf9ek4KLn9La-112" value="W" style="edgeLabel;html=1;align=center;verticalAlign=middle;resizable=0;points=[];" parent="1" vertex="1" connectable="0">
          <mxGeometry x="277" y="126" as="geometry">
            <mxPoint x="325" y="2" as="offset" />
          </mxGeometry>
        </mxCell>
        <mxCell id="CiyafRM-gf9ek4KLn9La-113" value="T" style="edgeLabel;html=1;align=center;verticalAlign=middle;resizable=0;points=[];" parent="1" vertex="1" connectable="0">
          <mxGeometry x="300" y="137" as="geometry">
            <mxPoint x="320" y="-8" as="offset" />
          </mxGeometry>
        </mxCell>
        <mxCell id="CiyafRM-gf9ek4KLn9La-114" value="F" style="edgeLabel;html=1;align=center;verticalAlign=middle;resizable=0;points=[];" parent="1" vertex="1" connectable="0">
          <mxGeometry x="324" y="139.00000000000006" as="geometry">
            <mxPoint x="311" y="-10" as="offset" />
          </mxGeometry>
        </mxCell>
        <mxCell id="CiyafRM-gf9ek4KLn9La-116" value="M" style="edgeLabel;html=1;align=center;verticalAlign=middle;resizable=0;points=[];" parent="1" vertex="1" connectable="0">
          <mxGeometry x="242" y="140.00000000000006" as="geometry">
            <mxPoint x="406" y="-12" as="offset" />
          </mxGeometry>
        </mxCell>
        <mxCell id="CiyafRM-gf9ek4KLn9La-117" value="T" style="edgeLabel;html=1;align=center;verticalAlign=middle;resizable=0;points=[];" parent="1" vertex="1" connectable="0">
          <mxGeometry x="268" y="136" as="geometry">
            <mxPoint x="395" y="-7" as="offset" />
          </mxGeometry>
        </mxCell>
        <mxCell id="CiyafRM-gf9ek4KLn9La-118" value="W" style="edgeLabel;html=1;align=center;verticalAlign=middle;resizable=0;points=[];" parent="1" vertex="1" connectable="0">
          <mxGeometry x="284" y="127" as="geometry">
            <mxPoint x="397" y="2" as="offset" />
          </mxGeometry>
        </mxCell>
        <mxCell id="CiyafRM-gf9ek4KLn9La-119" value="T" style="edgeLabel;html=1;align=center;verticalAlign=middle;resizable=0;points=[];" parent="1" vertex="1" connectable="0">
          <mxGeometry x="299" y="137" as="geometry">
            <mxPoint x="401" y="-9" as="offset" />
          </mxGeometry>
        </mxCell>
        <mxCell id="CiyafRM-gf9ek4KLn9La-120" value="F" style="edgeLabel;html=1;align=center;verticalAlign=middle;resizable=0;points=[];" parent="1" vertex="1" connectable="0">
          <mxGeometry x="316" y="139.00000000000006" as="geometry">
            <mxPoint x="399" y="-12" as="offset" />
          </mxGeometry>
        </mxCell>
        <mxCell id="CiyafRM-gf9ek4KLn9La-121" value="M" style="edgeLabel;html=1;align=center;verticalAlign=middle;resizable=0;points=[];" parent="1" vertex="1" connectable="0">
          <mxGeometry x="258" y="137" as="geometry">
            <mxPoint x="466" y="-9" as="offset" />
          </mxGeometry>
        </mxCell>
        <mxCell id="CiyafRM-gf9ek4KLn9La-122" value="T" style="edgeLabel;html=1;align=center;verticalAlign=middle;resizable=0;points=[];" parent="1" vertex="1" connectable="0">
          <mxGeometry x="266.1062185057698" y="138.6644732064945" as="geometry">
            <mxPoint x="473" y="-10" as="offset" />
          </mxGeometry>
        </mxCell>
        <mxCell id="CiyafRM-gf9ek4KLn9La-123" value="W" style="edgeLabel;html=1;align=center;verticalAlign=middle;resizable=0;points=[];" parent="1" vertex="1" connectable="0">
          <mxGeometry x="281" y="136" as="geometry">
            <mxPoint x="479" y="-7" as="offset" />
          </mxGeometry>
        </mxCell>
        <mxCell id="CiyafRM-gf9ek4KLn9La-124" value="T" style="edgeLabel;html=1;align=center;verticalAlign=middle;resizable=0;points=[];" parent="1" vertex="1" connectable="0">
          <mxGeometry x="299" y="134" as="geometry">
            <mxPoint x="480" y="-5" as="offset" />
          </mxGeometry>
        </mxCell>
        <mxCell id="CiyafRM-gf9ek4KLn9La-125" value="F" style="edgeLabel;html=1;align=center;verticalAlign=middle;resizable=0;points=[];" parent="1" vertex="1" connectable="0">
          <mxGeometry x="324" y="138" as="geometry">
            <mxPoint x="471" y="-9" as="offset" />
          </mxGeometry>
        </mxCell>
        <mxCell id="CiyafRM-gf9ek4KLn9La-126" value="M" style="edgeLabel;html=1;align=center;verticalAlign=middle;resizable=0;points=[];" parent="1" vertex="1" connectable="0">
          <mxGeometry x="254" y="136" as="geometry">
            <mxPoint x="555" y="-7" as="offset" />
          </mxGeometry>
        </mxCell>
        <mxCell id="CiyafRM-gf9ek4KLn9La-127" value="T" style="edgeLabel;html=1;align=center;verticalAlign=middle;resizable=0;points=[];" parent="1" vertex="1" connectable="0">
          <mxGeometry x="264" y="138.6644732064945" as="geometry">
            <mxPoint x="564" y="-9" as="offset" />
          </mxGeometry>
        </mxCell>
        <mxCell id="CiyafRM-gf9ek4KLn9La-128" value="W" style="edgeLabel;html=1;align=center;verticalAlign=middle;resizable=0;points=[];" parent="1" vertex="1" connectable="0">
          <mxGeometry x="286" y="136" as="geometry">
            <mxPoint x="557" y="-7" as="offset" />
          </mxGeometry>
        </mxCell>
        <mxCell id="CiyafRM-gf9ek4KLn9La-129" value="T" style="edgeLabel;html=1;align=center;verticalAlign=middle;resizable=0;points=[];" parent="1" vertex="1" connectable="0">
          <mxGeometry x="299" y="137" as="geometry">
            <mxPoint x="560" y="-9" as="offset" />
          </mxGeometry>
        </mxCell>
        <mxCell id="CiyafRM-gf9ek4KLn9La-130" value="F" style="edgeLabel;html=1;align=center;verticalAlign=middle;resizable=0;points=[];" parent="1" vertex="1" connectable="0">
          <mxGeometry x="322" y="137" as="geometry">
            <mxPoint x="552" y="-8" as="offset" />
          </mxGeometry>
        </mxCell>
        <mxCell id="CiyafRM-gf9ek4KLn9La-131" value="M" style="edgeLabel;html=1;align=center;verticalAlign=middle;resizable=0;points=[];" parent="1" vertex="1" connectable="0">
          <mxGeometry x="255" y="138" as="geometry">
            <mxPoint x="633" y="-10" as="offset" />
          </mxGeometry>
        </mxCell>
        <mxCell id="CiyafRM-gf9ek4KLn9La-132" value="T" style="edgeLabel;html=1;align=center;verticalAlign=middle;resizable=0;points=[];rotation=90;" parent="1" vertex="1" connectable="0">
          <mxGeometry x="260" y="143" as="geometry">
            <mxPoint x="644" y="-14" as="offset" />
          </mxGeometry>
        </mxCell>
        <mxCell id="CiyafRM-gf9ek4KLn9La-133" value="T" style="edgeLabel;html=1;align=center;verticalAlign=middle;resizable=0;points=[];rotation=90;" parent="1" vertex="1" connectable="0">
          <mxGeometry x="270" y="153" as="geometry">
            <mxPoint x="644" y="-14" as="offset" />
          </mxGeometry>
        </mxCell>
        <mxCell id="CiyafRM-gf9ek4KLn9La-134" value="W" style="edgeLabel;html=1;align=center;verticalAlign=middle;resizable=0;points=[];" parent="1" vertex="1" connectable="0">
          <mxGeometry x="284" y="136" as="geometry">
            <mxPoint x="637" y="-6" as="offset" />
          </mxGeometry>
        </mxCell>
        <mxCell id="CiyafRM-gf9ek4KLn9La-135" value="T" style="edgeLabel;html=1;align=center;verticalAlign=middle;resizable=0;points=[];" parent="1" vertex="1" connectable="0">
          <mxGeometry x="269" y="138.6644732064945" as="geometry">
            <mxPoint x="635" y="-10" as="offset" />
          </mxGeometry>
        </mxCell>
        <mxCell id="CiyafRM-gf9ek4KLn9La-136" value="T" style="edgeLabel;html=1;align=center;verticalAlign=middle;resizable=0;points=[];" parent="1" vertex="1" connectable="0">
          <mxGeometry x="300" y="141" as="geometry">
            <mxPoint x="640" y="-11" as="offset" />
          </mxGeometry>
        </mxCell>
        <mxCell id="CiyafRM-gf9ek4KLn9La-137" value="F" style="edgeLabel;html=1;align=center;verticalAlign=middle;resizable=0;points=[];" parent="1" vertex="1" connectable="0">
          <mxGeometry x="314" y="143" as="geometry">
            <mxPoint x="641" y="-13" as="offset" />
          </mxGeometry>
        </mxCell>
        <mxCell id="CiyafRM-gf9ek4KLn9La-138" value="M" style="edgeLabel;html=1;align=center;verticalAlign=middle;resizable=0;points=[];" parent="1" vertex="1" connectable="0">
          <mxGeometry x="248" y="140" as="geometry">
            <mxPoint x="717" y="-11" as="offset" />
          </mxGeometry>
        </mxCell>
        <mxCell id="CiyafRM-gf9ek4KLn9La-139" value="T" style="edgeLabel;html=1;align=center;verticalAlign=middle;resizable=0;points=[];" parent="1" vertex="1" connectable="0">
          <mxGeometry x="264" y="136" as="geometry">
            <mxPoint x="717" y="-7" as="offset" />
          </mxGeometry>
        </mxCell>
        <mxCell id="CiyafRM-gf9ek4KLn9La-140" value="W" style="edgeLabel;html=1;align=center;verticalAlign=middle;resizable=0;points=[];" parent="1" vertex="1" connectable="0">
          <mxGeometry x="284" y="137.6688621366207" as="geometry">
            <mxPoint x="716" y="-8" as="offset" />
          </mxGeometry>
        </mxCell>
        <mxCell id="CiyafRM-gf9ek4KLn9La-141" value="T" style="edgeLabel;html=1;align=center;verticalAlign=middle;resizable=0;points=[];" parent="1" vertex="1" connectable="0">
          <mxGeometry x="298" y="136" as="geometry">
            <mxPoint x="720" y="-7" as="offset" />
          </mxGeometry>
        </mxCell>
        <mxCell id="CiyafRM-gf9ek4KLn9La-142" value="F" style="edgeLabel;html=1;align=center;verticalAlign=middle;resizable=0;points=[];" parent="1" vertex="1" connectable="0">
          <mxGeometry x="322" y="134" as="geometry">
            <mxPoint x="711" y="-5" as="offset" />
          </mxGeometry>
        </mxCell>
        <mxCell id="CiyafRM-gf9ek4KLn9La-143" value="Planned time (week numbers)" style="text;html=1;align=center;verticalAlign=middle;resizable=0;points=[];autosize=1;strokeColor=none;fillColor=none;" parent="1" vertex="1">
          <mxGeometry x="164" y="48" width="180" height="30" as="geometry" />
        </mxCell>
        <mxCell id="CiyafRM-gf9ek4KLn9La-144" value="Ranesh Krishna" style="text;html=1;align=center;verticalAlign=middle;resizable=0;points=[];autosize=1;strokeColor=none;fillColor=none;" parent="1" vertex="1">
          <mxGeometry x="108" y="153" width="110" height="30" as="geometry" />
        </mxCell>
        <mxCell id="CiyafRM-gf9ek4KLn9La-145" value="Sumit Kumar" style="text;html=1;align=center;verticalAlign=middle;resizable=0;points=[];autosize=1;strokeColor=none;fillColor=none;" parent="1" vertex="1">
          <mxGeometry x="108" y="251.46" width="90" height="30" as="geometry" />
        </mxCell>
        <mxCell id="CiyafRM-gf9ek4KLn9La-146" value="Vishal Singh" style="text;html=1;align=center;verticalAlign=middle;resizable=0;points=[];autosize=1;strokeColor=none;fillColor=none;" parent="1" vertex="1">
          <mxGeometry x="108" y="367.5" width="90" height="30" as="geometry" />
        </mxCell>
        <mxCell id="CiyafRM-gf9ek4KLn9La-147" value="Nilesh Chopra" style="text;html=1;align=center;verticalAlign=middle;resizable=0;points=[];autosize=1;strokeColor=none;fillColor=none;" parent="1" vertex="1">
          <mxGeometry x="108" y="458" width="100" height="30" as="geometry" />
        </mxCell>
        <mxCell id="CiyafRM-gf9ek4KLn9La-148" value="Requirement Analysis" style="text;html=1;align=center;verticalAlign=middle;resizable=0;points=[];autosize=1;strokeColor=none;fillColor=none;" parent="1" vertex="1">
          <mxGeometry x="108" y="173.44" width="140" height="30" as="geometry" />
        </mxCell>
        <mxCell id="CiyafRM-gf9ek4KLn9La-149" value="Design" style="text;html=1;align=center;verticalAlign=middle;resizable=0;points=[];autosize=1;strokeColor=none;fillColor=none;" parent="1" vertex="1">
          <mxGeometry x="175" y="270" width="60" height="30" as="geometry" />
        </mxCell>
        <mxCell id="CiyafRM-gf9ek4KLn9La-150" value="Coding" style="text;html=1;align=center;verticalAlign=middle;resizable=0;points=[];autosize=1;strokeColor=none;fillColor=none;" parent="1" vertex="1">
          <mxGeometry x="178" y="397.5" width="60" height="30" as="geometry" />
        </mxCell>
        <mxCell id="CiyafRM-gf9ek4KLn9La-151" value="Testing" style="text;html=1;align=center;verticalAlign=middle;resizable=0;points=[];autosize=1;strokeColor=none;fillColor=none;" parent="1" vertex="1">
          <mxGeometry x="178" y="490" width="60" height="30" as="geometry" />
        </mxCell>
        <mxCell id="CiyafRM-gf9ek4KLn9La-158" value="" style="endArrow=none;dashed=1;html=1;rounded=0;entryX=0.451;entryY=1.24;entryDx=0;entryDy=0;entryPerimeter=0;" parent="1" target="CiyafRM-gf9ek4KLn9La-154" edge="1">
          <mxGeometry width="50" height="50" relative="1" as="geometry">
            <mxPoint x="424" y="522.76" as="sourcePoint" />
            <mxPoint x="424.22" y="122.9999999999999" as="targetPoint" />
          </mxGeometry>
        </mxCell>
        <mxCell id="CiyafRM-gf9ek4KLn9La-159" value="" style="endArrow=none;dashed=1;html=1;rounded=0;entryX=0.5;entryY=1;entryDx=0;entryDy=0;" parent="1" target="CiyafRM-gf9ek4KLn9La-154" edge="1">
          <mxGeometry width="50" height="50" relative="1" as="geometry">
            <mxPoint x="440" y="520" as="sourcePoint" />
            <mxPoint x="440" y="120" as="targetPoint" />
          </mxGeometry>
        </mxCell>
        <mxCell id="CiyafRM-gf9ek4KLn9La-154" value="" style="rounded=0;whiteSpace=wrap;html=1;" parent="1" vertex="1">
          <mxGeometry x="298" y="170" width="282" height="20" as="geometry" />
        </mxCell>
        <mxCell id="CiyafRM-gf9ek4KLn9La-162" value="" style="endArrow=none;dashed=1;html=1;rounded=0;entryX=1;entryY=1;entryDx=0;entryDy=0;" parent="1" target="CiyafRM-gf9ek4KLn9La-160" edge="1">
          <mxGeometry width="50" height="50" relative="1" as="geometry">
            <mxPoint x="672" y="520" as="sourcePoint" />
            <mxPoint x="672" y="123" as="targetPoint" />
          </mxGeometry>
        </mxCell>
        <mxCell id="CiyafRM-gf9ek4KLn9La-160" value="" style="rounded=0;whiteSpace=wrap;html=1;" parent="1" vertex="1">
          <mxGeometry x="490" y="240" width="180" height="20" as="geometry" />
        </mxCell>
        <mxCell id="CiyafRM-gf9ek4KLn9La-165" value="" style="endArrow=none;dashed=1;html=1;rounded=0;targetPerimeterSpacing=0;endSize=6;entryX=0.822;entryY=1.08;entryDx=0;entryDy=0;entryPerimeter=0;" parent="1" target="CiyafRM-gf9ek4KLn9La-164" edge="1">
          <mxGeometry width="50" height="50" relative="1" as="geometry">
            <mxPoint x="837" y="520" as="sourcePoint" />
            <mxPoint x="840" y="120" as="targetPoint" />
          </mxGeometry>
        </mxCell>
        <mxCell id="CiyafRM-gf9ek4KLn9La-164" value="" style="rounded=0;whiteSpace=wrap;html=1;" parent="1" vertex="1">
          <mxGeometry x="610" y="358" width="276.29" height="20" as="geometry" />
        </mxCell>
        <mxCell id="CiyafRM-gf9ek4KLn9La-167" value="" style="endArrow=none;dashed=1;html=1;rounded=0;entryX=0.837;entryY=1.14;entryDx=0;entryDy=0;entryPerimeter=0;" parent="1" target="CiyafRM-gf9ek4KLn9La-166" edge="1">
          <mxGeometry width="50" height="50" relative="1" as="geometry">
            <mxPoint x="993" y="520" as="sourcePoint" />
            <mxPoint x="990" y="122" as="targetPoint" />
          </mxGeometry>
        </mxCell>
        <mxCell id="CiyafRM-gf9ek4KLn9La-166" value="" style="rounded=0;whiteSpace=wrap;html=1;" parent="1" vertex="1">
          <mxGeometry x="790" y="468" width="240" height="20" as="geometry" />
        </mxCell>
        <mxCell id="CiyafRM-gf9ek4KLn9La-175" value="" style="endArrow=none;dashed=1;html=1;rounded=0;" parent="1" edge="1">
          <mxGeometry width="50" height="50" relative="1" as="geometry">
            <mxPoint x="730" y="518" as="sourcePoint" />
            <mxPoint x="730" y="390" as="targetPoint" />
          </mxGeometry>
        </mxCell>
        <mxCell id="CiyafRM-gf9ek4KLn9La-172" value="" style="line;strokeWidth=4;direction=south;html=1;perimeter=backbonePerimeter;points=[];outlineConnect=0;rotation=-60;" parent="1" vertex="1">
          <mxGeometry x="808.81" y="340" width="10" height="167" as="geometry" />
        </mxCell>
        <mxCell id="CiyafRM-gf9ek4KLn9La-177" value="" style="endArrow=none;dashed=1;html=1;rounded=0;" parent="1" edge="1">
          <mxGeometry width="50" height="50" relative="1" as="geometry">
            <mxPoint x="747.62" y="520" as="sourcePoint" />
            <mxPoint x="748.62" y="340" as="targetPoint" />
          </mxGeometry>
        </mxCell>
        <mxCell id="CiyafRM-gf9ek4KLn9La-176" value="" style="line;strokeWidth=4;direction=south;html=1;perimeter=backbonePerimeter;points=[];outlineConnect=0;rotation=45;" parent="1" vertex="1">
          <mxGeometry x="750" y="340" width="10" height="50" as="geometry" />
        </mxCell>
        <mxCell id="CiyafRM-gf9ek4KLn9La-181" value="" style="endArrow=none;dashed=1;html=1;rounded=0;entryX=0.933;entryY=1.26;entryDx=0;entryDy=0;entryPerimeter=0;" parent="1" target="CiyafRM-gf9ek4KLn9La-160" edge="1">
          <mxGeometry width="50" height="50" relative="1" as="geometry">
            <mxPoint x="656" y="520" as="sourcePoint" />
            <mxPoint x="656" y="119" as="targetPoint" />
          </mxGeometry>
        </mxCell>
        <mxCell id="CiyafRM-gf9ek4KLn9La-179" value="" style="line;strokeWidth=4;direction=south;html=1;perimeter=backbonePerimeter;points=[];outlineConnect=0;rotation=-60;" parent="1" vertex="1">
          <mxGeometry x="676.29" y="187.5" width="10" height="210" as="geometry" />
        </mxCell>
        <mxCell id="CiyafRM-gf9ek4KLn9La-183" value="" style="line;strokeWidth=4;direction=south;html=1;perimeter=backbonePerimeter;points=[];outlineConnect=0;" parent="1" vertex="1">
          <mxGeometry x="876.29" y="464" width="10" height="56" as="geometry" />
        </mxCell>
        <mxCell id="CiyafRM-gf9ek4KLn9La-184" value="" style="line;strokeWidth=4;direction=south;html=1;perimeter=backbonePerimeter;points=[];outlineConnect=0;rotation=-35;" parent="1" vertex="1">
          <mxGeometry x="564.88" y="168.46" width="10" height="83" as="geometry" />
        </mxCell>
        <mxCell id="CiyafRM-gf9ek4KLn9La-188" value="" style="line;strokeWidth=4;direction=south;html=1;perimeter=backbonePerimeter;points=[];outlineConnect=0;" parent="1" vertex="1">
          <mxGeometry x="540" y="50" width="10" height="126" as="geometry" />
        </mxCell>
        <mxCell id="CiyafRM-gf9ek4KLn9La-190" value="" style="endArrow=none;dashed=1;html=1;rounded=0;" parent="1" edge="1">
          <mxGeometry width="50" height="50" relative="1" as="geometry">
            <mxPoint x="550" y="520" as="sourcePoint" />
            <mxPoint x="550" y="120" as="targetPoint" />
          </mxGeometry>
        </mxCell>
        <mxCell id="CiyafRM-gf9ek4KLn9La-191" value="" style="endArrow=none;dashed=1;html=1;rounded=0;" parent="1" edge="1">
          <mxGeometry width="50" height="50" relative="1" as="geometry">
            <mxPoint x="120" y="200" as="sourcePoint" />
            <mxPoint x="1040" y="200" as="targetPoint" />
          </mxGeometry>
        </mxCell>
        <mxCell id="CiyafRM-gf9ek4KLn9La-192" value="" style="endArrow=none;dashed=1;html=1;rounded=0;" parent="1" edge="1">
          <mxGeometry width="50" height="50" relative="1" as="geometry">
            <mxPoint x="120" y="300" as="sourcePoint" />
            <mxPoint x="1040" y="300" as="targetPoint" />
          </mxGeometry>
        </mxCell>
        <mxCell id="CiyafRM-gf9ek4KLn9La-194" value="" style="endArrow=none;dashed=1;html=1;rounded=0;" parent="1" edge="1">
          <mxGeometry width="50" height="50" relative="1" as="geometry">
            <mxPoint x="120" y="440" as="sourcePoint" />
            <mxPoint x="1040" y="440" as="targetPoint" />
          </mxGeometry>
        </mxCell>
        <mxCell id="CiyafRM-gf9ek4KLn9La-195" value="" style="endArrow=none;dashed=1;html=1;rounded=0;" parent="1" edge="1">
          <mxGeometry width="50" height="50" relative="1" as="geometry">
            <mxPoint x="120" y="520" as="sourcePoint" />
            <mxPoint x="1040" y="520" as="targetPoint" />
          </mxGeometry>
        </mxCell>
        <mxCell id="765mVnRVJmWCi95svev6-1" value="F" style="text;html=1;align=center;verticalAlign=middle;resizable=0;points=[];autosize=1;strokeColor=none;fillColor=none;" parent="1" vertex="1">
          <mxGeometry x="295" y="113.44" width="30" height="30" as="geometry" />
        </mxCell>
        <mxCell id="WXLlgzOoc0d_9iMp-rs_-1" value="" style="endArrow=none;html=1;rounded=0;" edge="1" parent="1">
          <mxGeometry width="50" height="50" relative="1" as="geometry">
            <mxPoint x="160" y="137.5" as="sourcePoint" />
            <mxPoint x="1040" y="137.5" as="targetPoint" />
          </mxGeometry>
        </mxCell>
      </root>
    </mxGraphModel>
  </diagram>
</mxfile>
